<svg width="599" height="544" viewBox="0 0 599 544" fill="none" xmlns="http://www.w3.org/2000/svg">
<path d="M200.124 122.858L199.078 121.683L225.675 97.9902H225.974C281.543 97.9902 339.11 98.0827 394.781 98.1728C450.452 98.2618 508.018 98.3554 563.585 98.3554V99.928C508.016 99.928 450.449 99.8355 394.778 99.7454C339.205 99.6553 281.749 99.5628 226.273 99.5628L200.124 122.858Z" fill="#9B9B9B"/>
<path d="M206.835 130.806C206.617 130.806 206.4 130.715 206.245 130.539C205.958 130.212 205.989 129.715 206.316 129.428L241.436 98.5506C241.74 98.2837 242.195 98.2907 242.492 98.5657L273.841 127.829L304.126 98.5749C304.42 98.2895 304.886 98.2803 305.193 98.5506L338.422 127.845L368.992 98.5714C369.288 98.2895 369.751 98.2779 370.058 98.5518L403.027 127.849L434.398 98.5645C434.693 98.2907 435.148 98.2826 435.452 98.5472L468.945 127.842L498.981 98.5761C499.28 98.2837 499.754 98.2779 500.061 98.5599L531.954 127.838L563.048 98.5657C563.342 98.2895 563.799 98.2814 564.105 98.546L598.146 128.319C598.473 128.606 598.506 129.101 598.219 129.429C597.932 129.758 597.436 129.79 597.11 129.505L563.607 100.202L532.5 129.485C532.197 129.767 531.731 129.769 531.429 129.491L499.546 100.221L469.524 129.474C469.231 129.762 468.768 129.774 468.458 129.503L434.953 100.198L403.578 129.486C403.284 129.761 402.824 129.77 402.52 129.499L369.558 100.209L338.991 129.48C338.694 129.762 338.232 129.771 337.927 129.502L304.701 100.21L274.4 129.478C274.101 129.77 273.624 129.773 273.317 129.488L241.943 100.202L207.36 130.609C207.205 130.741 207.02 130.806 206.835 130.806Z" fill="#9B9B9B"/>
<path d="M62.132 103.615H5.06445V170.795H62.132V103.615Z" fill="#455A64"/>
<path d="M23.4715 170.795C23.2451 170.795 23.0625 155.756 23.0625 137.207C23.0625 118.653 23.2462 103.615 23.4715 103.615C23.698 103.615 23.8806 118.653 23.8806 137.207C23.8817 155.755 23.698 170.795 23.4715 170.795Z" fill="#263238"/>
<path d="M45.4258 170.795C45.1993 170.795 45.0156 155.755 45.0156 137.207C45.0156 118.652 45.1993 103.615 45.4258 103.615C45.6523 103.615 45.8349 118.652 45.8349 137.207C45.836 155.754 45.6523 170.795 45.4258 170.795Z" fill="#263238"/>
<path d="M598.017 130.511H0V121.321H598.017V130.511ZM0.78572 129.724H597.23V122.107H0.78572V129.724Z" fill="#9B9B9B"/>
<path d="M200.273 130.511C200.197 130.511 200.121 130.489 200.054 130.443L168.387 109.071C168.207 108.95 168.158 108.706 168.281 108.526C168.403 108.346 168.65 108.298 168.826 108.42L200.493 129.791C200.673 129.912 200.72 130.156 200.599 130.336C200.523 130.45 200.399 130.511 200.273 130.511Z" fill="#9B9B9B"/>
<path d="M200.272 130.364C200.078 130.364 199.908 130.22 199.882 130.021L197.113 108.435L165.459 130.294C165.331 130.382 165.162 130.386 165.031 130.307C164.898 130.226 164.825 130.075 164.845 129.921L176.448 39.0556C176.449 39.0476 176.451 39.0383 176.452 39.0291L177.904 27.6546C177.905 27.6477 177.905 27.6419 177.906 27.635L181.007 3.35855C181.032 3.16328 181.198 3.01538 181.397 3.01538H184.033C184.23 3.01538 184.398 3.16212 184.423 3.35855L185.813 14.1946C185.817 14.2096 185.818 14.2246 185.819 14.2396L189.013 39.1296C189.014 39.1377 189.016 39.1469 189.016 39.1562L191.92 61.7872C191.921 61.7941 191.922 61.7999 191.922 61.8069L193.501 74.1034C193.524 74.1369 193.542 74.1762 193.555 74.2166C193.578 74.2986 193.575 74.3841 193.547 74.4604L200.665 129.922C200.692 130.137 200.54 130.334 200.324 130.362C200.305 130.363 200.289 130.364 200.272 130.364ZM168.307 109.019L165.736 129.148L195.788 108.394L168.307 109.019ZM194.651 89.2562L169.425 108.207L197.004 107.58L194.651 89.2562ZM170.855 89.0621L168.441 107.961L193.6 89.0621H170.855ZM171.898 88.2764H194.526L192.825 75.0162L171.898 88.2764ZM172.686 74.7192L171.001 87.9124L191.821 74.7192H172.686ZM173.717 73.9335H192.685L191.22 62.5198L173.717 73.9335ZM174.279 62.2402L172.833 73.5718L190.209 62.2402H174.279ZM175.181 61.4544H191.083L189.719 50.823L175.181 61.4544ZM175.778 50.5052L174.434 61.0258L188.821 50.5052H175.778ZM176.567 49.7195H189.578L188.324 39.9534L176.567 49.7195ZM177.185 39.489L175.943 49.2145L187.546 39.5768L177.185 39.489ZM177.72 38.7079L188.175 38.7957L186.873 28.6518L177.72 38.7079ZM178.64 28.0914L177.386 37.906L186.271 28.1445L178.64 28.0914ZM178.945 27.3068L186.709 27.3611L185.192 15.5441L178.945 27.3068ZM180.338 14.7966L178.957 25.6083L184.762 14.6775L180.338 14.7966ZM181.741 3.80226L180.438 14.0074L184.979 13.8849L183.686 3.80226H181.741Z" fill="#9B9B9B"/>
<path d="M187.216 28.2343C187.075 28.2343 186.939 28.1581 186.869 28.0252L179.737 14.5975C179.636 14.4056 179.708 14.1676 179.9 14.0659C180.091 13.9643 180.33 14.0371 180.432 14.2289L187.563 27.6566C187.666 27.8484 187.592 28.0864 187.4 28.1881C187.341 28.2193 187.278 28.2343 187.216 28.2343Z" fill="#9B9B9B"/>
<path d="M188.667 39.6317C188.561 39.6317 188.454 39.589 188.376 39.5035L178.059 28.1683C177.913 28.0077 177.925 27.7593 178.086 27.6125C178.246 27.4681 178.496 27.4785 178.641 27.6391L188.959 38.9742C189.104 39.1349 189.093 39.3833 188.932 39.53C188.857 39.5982 188.761 39.6317 188.667 39.6317Z" fill="#9B9B9B"/>
<path d="M190.028 50.6502C189.939 50.6502 189.85 50.6202 189.777 50.5601L176.633 39.6409C176.465 39.5023 176.442 39.2538 176.581 39.0874C176.719 38.9199 176.969 38.9003 177.134 39.0366L190.279 49.9558C190.446 50.0944 190.47 50.3429 190.331 50.5093C190.253 50.6029 190.141 50.6502 190.028 50.6502Z" fill="#9B9B9B"/>
<path d="M191.529 62.3864C191.448 62.3864 191.367 62.3622 191.296 62.3102L175.249 50.5752C175.074 50.447 175.036 50.2008 175.164 50.0264C175.292 49.8507 175.54 49.8138 175.713 49.9409L191.76 61.6758C191.935 61.8041 191.974 62.0502 191.845 62.2247C191.769 62.3298 191.649 62.3864 191.529 62.3864Z" fill="#9B9B9B"/>
<path d="M193.111 74.8655C193.037 74.8655 192.963 74.8447 192.896 74.802L173.761 62.3229C173.578 62.2039 173.527 61.9601 173.646 61.7787C173.765 61.5984 174.009 61.5464 174.191 61.6643L193.326 74.1433C193.509 74.2624 193.56 74.5062 193.441 74.6876C193.366 74.802 193.24 74.8655 193.111 74.8655Z" fill="#9B9B9B"/>
<path d="M194.964 89.2084C194.892 89.2084 194.818 89.1888 194.754 89.1472L172.12 74.8043C171.937 74.6888 171.882 74.4461 171.999 74.2624C172.116 74.0787 172.359 74.0255 172.541 74.1411L195.174 88.4839C195.358 88.5995 195.412 88.8421 195.296 89.0258C195.222 89.1437 195.093 89.2084 194.964 89.2084Z" fill="#9B9B9B"/>
<path d="M197.094 108.364C197.013 108.364 196.932 108.34 196.862 108.289L170.498 89.1326C170.322 89.0055 170.283 88.7594 170.411 88.5838C170.539 88.4081 170.785 88.3711 170.96 88.4971L197.325 107.652C197.5 107.78 197.54 108.026 197.411 108.201C197.335 108.308 197.215 108.364 197.094 108.364Z" fill="#9B9B9B"/>
<path d="M182.752 158.209C182.535 158.209 182.359 158.033 182.359 157.816V1.58231C182.359 1.36508 182.535 1.18945 182.752 1.18945C182.969 1.18945 183.145 1.36508 183.145 1.58231V157.815C183.145 158.033 182.969 158.209 182.752 158.209Z" fill="#9B9B9B"/>
<path d="M176.57 130.117H160.475V184.833H176.57V130.117Z" fill="#9B9B9B"/>
<path d="M214.145 156.756H170.729V185.518H214.145V156.756Z" fill="#9B9B9B"/>
<path d="M161.398 162.812H147.773V185.52H161.398V162.812Z" fill="#9B9B9B"/>
<path d="M218.255 194.153H148.537V204.366H218.255V194.153Z" fill="#9B9B9B"/>
<path d="M210.736 184.256H154.592V189.922H210.736V184.256Z" fill="#9B9B9B"/>
<path d="M207.857 188.944H157.572V194.153H207.857V188.944Z" fill="#9B9B9B"/>
<path d="M210.808 337.451H155.33V340.598H210.808V337.451Z" fill="#9B9B9B"/>
<path d="M210.515 460.342H155.33V463.489H210.515V460.342Z" fill="#9B9B9B"/>
<path d="M9.18124 110.471L8.76758 109.802L182.912 2.34644L183.088 2.40652L467.236 98.6595L466.984 99.4048L183.01 3.21073L9.18124 110.471Z" fill="#9B9B9B"/>
<path d="M162.961 121.605H162.568V110.333H0.592074V121.605H0.199219V109.939H162.961V121.605Z" fill="#9B9B9B"/>
<path d="M9.17021 110.137H8.77734V121.305H9.17021V110.137Z" fill="#9B9B9B"/>
<path d="M16.5003 110.137H16.1074V121.306H16.5003V110.137Z" fill="#9B9B9B"/>
<path d="M23.8323 110.137H23.4395V121.306H23.8323V110.137Z" fill="#9B9B9B"/>
<path d="M31.1643 110.137H30.7715V121.306H31.1643V110.137Z" fill="#9B9B9B"/>
<path d="M38.4964 110.137H38.1035V121.306H38.4964V110.137Z" fill="#9B9B9B"/>
<path d="M45.8265 110.137H45.4336V121.305H45.8265V110.137Z" fill="#9B9B9B"/>
<path d="M53.1546 110.137H52.7617V121.306H53.1546V110.137Z" fill="#9B9B9B"/>
<path d="M60.4886 110.137H60.0957V121.306H60.4886V110.137Z" fill="#9B9B9B"/>
<path d="M67.8225 110.137H67.4297V121.306H67.8225V110.137Z" fill="#9B9B9B"/>
<path d="M75.1507 110.137H74.7578V121.306H75.1507V110.137Z" fill="#9B9B9B"/>
<path d="M82.4807 110.137H82.0879V121.305H82.4807V110.137Z" fill="#9B9B9B"/>
<path d="M89.8128 110.137H89.4199V121.306H89.8128V110.137Z" fill="#9B9B9B"/>
<path d="M97.1429 110.137H96.75V121.306H97.1429V110.137Z" fill="#9B9B9B"/>
<path d="M104.477 110.137H104.084V121.306H104.477V110.137Z" fill="#9B9B9B"/>
<path d="M111.809 110.137H111.416V121.306H111.809V110.137Z" fill="#9B9B9B"/>
<path d="M119.137 110.137H118.744V121.305H119.137V110.137Z" fill="#9B9B9B"/>
<path d="M126.467 110.137H126.074V121.306H126.467V110.137Z" fill="#9B9B9B"/>
<path d="M133.799 110.137H133.406V121.306H133.799V110.137Z" fill="#9B9B9B"/>
<path d="M141.133 110.137H140.74V121.306H141.133V110.137Z" fill="#9B9B9B"/>
<path d="M148.463 110.137H148.07V121.306H148.463V110.137Z" fill="#9B9B9B"/>
<path d="M155.795 110.137H155.402V121.305H155.795V110.137Z" fill="#9B9B9B"/>
<path d="M123.565 121.714H108.723V130.117H123.565V121.714Z" fill="#9B9B9B"/>
<path d="M155.192 121.714H140.35V130.117H155.192V121.714Z" fill="#9B9B9B"/>
<path d="M238.799 121.714H223.957V130.117H238.799V121.714Z" fill="#9B9B9B"/>
<path d="M281.385 121.714H266.543V130.117H281.385V121.714Z" fill="#9B9B9B"/>
<path d="M323.965 121.714H309.123V130.117H323.965V121.714Z" fill="#9B9B9B"/>
<path d="M366.547 121.714H351.705V130.117H366.547V121.714Z" fill="#9B9B9B"/>
<path d="M409.131 121.714H394.289V130.117H409.131V121.714Z" fill="#9B9B9B"/>
<path d="M451.717 121.714H436.875V130.117H451.717V121.714Z" fill="#9B9B9B"/>
<path d="M494.297 121.714H479.455V130.117H494.297V121.714Z" fill="#9B9B9B"/>
<path d="M536.881 121.714H522.039V130.117H536.881V121.714Z" fill="#9B9B9B"/>
<path d="M579.465 121.714H564.623V130.117H579.465V121.714Z" fill="#9B9B9B"/>
<path d="M91.0783 121.714H76.2363V130.117H91.0783V121.714Z" fill="#9B9B9B"/>
<path d="M58.592 121.714H43.75V130.117H58.592V121.714Z" fill="#9B9B9B"/>
<path d="M26.1076 121.714H11.2656V130.117H26.1076V121.714Z" fill="#9B9B9B"/>
<path d="M181.165 2.96457L33.375 109.813L33.836 110.451L181.626 3.60226L181.165 2.96457Z" fill="#9B9B9B"/>
<path d="M598.658 120.056H563.594V131.26H598.658V120.056Z" fill="#9B9B9B"/>
<path d="M598.66 131.26C598.643 131.241 598.625 130.964 598.606 130.45C598.589 129.858 598.567 129.123 598.541 128.22C598.506 126.211 598.457 123.463 598.396 120.055L598.662 120.321C590.331 120.409 577.701 120.465 563.6 120.465C563.783 120.283 563.189 120.873 564.007 120.056V120.059V120.064V120.076V120.099V120.144V120.235V120.418V120.781V121.505L564.006 122.945C564.006 123.9 564.004 124.847 564.003 125.784C564 127.656 563.997 129.485 563.994 131.26L563.597 130.862C573.598 130.883 582.3 130.967 588.556 131.046C591.616 131.092 594.098 131.13 595.927 131.158C596.732 131.179 597.394 131.196 597.931 131.209C598.395 131.226 598.643 131.242 598.66 131.26C598.678 131.277 598.462 131.293 598.031 131.311C597.515 131.324 596.882 131.342 596.11 131.361C594.303 131.389 591.852 131.427 588.831 131.473C582.597 131.552 573.768 131.636 563.598 131.657L563.201 131.658L563.2 131.26C563.197 129.486 563.194 127.657 563.191 125.784C563.19 124.848 563.19 123.9 563.189 122.945L563.188 121.505V120.781V120.418V120.235V120.144V120.099V120.076V120.064V120.059V120.056C564.006 119.236 563.416 119.829 563.599 119.646C577.7 119.646 590.33 119.702 598.66 119.79L598.931 119.793L598.926 120.056C598.866 123.53 598.816 126.332 598.781 128.379C598.754 129.257 598.733 129.974 598.716 130.549C598.696 131.036 598.678 131.278 598.66 131.26Z" fill="#263238"/>
<path d="M185.566 0.28125H180.352V5.49589H185.566V0.28125Z" fill="#9B9B9B"/>
<path d="M410.174 144.304C413.598 144.304 416.372 141.529 416.372 138.106C416.372 134.683 413.598 131.908 410.174 131.908C406.751 131.908 403.977 134.683 403.977 138.106C403.977 141.529 406.751 144.304 410.174 144.304Z" fill="#263238"/>
<path d="M387.866 144.304C391.289 144.304 394.064 141.529 394.064 138.106C394.064 134.683 391.289 131.908 387.866 131.908C384.443 131.908 381.668 134.683 381.668 138.106C381.668 141.529 384.443 144.304 387.866 144.304Z" fill="#263238"/>
<path d="M376.452 137.487C378.648 137.487 380.429 135.706 380.429 133.51C380.429 131.313 378.648 129.532 376.452 129.532C374.255 129.532 372.475 131.313 372.475 133.51C372.475 135.706 374.255 137.487 376.452 137.487Z" fill="#263238"/>
<path d="M390.377 168.518C390.15 168.518 389.967 162.324 389.967 154.685C389.967 147.042 390.15 140.849 390.377 140.849C390.603 140.849 390.786 147.042 390.786 154.685C390.786 162.324 390.602 168.518 390.377 168.518Z" fill="#263238"/>
<path d="M407.659 168.518C407.433 168.518 407.25 162.323 407.25 154.684C407.25 147.042 407.434 140.849 407.659 140.849C407.886 140.849 408.068 147.042 408.068 154.684C408.069 162.323 407.886 168.518 407.659 168.518Z" fill="#263238"/>
<path d="M386.979 165.875C386.979 166.26 391.851 188.314 391.851 188.314H404.93L409.674 165.875L398.328 161.131L386.979 165.875Z" fill="#263238"/>
<path d="M416.371 127.964H378.436V138.106H416.371V127.964Z" fill="#9B9B9B"/>
<path d="M416.37 138.106C416.353 138.09 416.336 137.84 416.319 137.377C416.303 136.841 416.283 136.179 416.259 135.366C416.225 133.548 416.178 131.061 416.12 127.966L416.37 128.215C407.728 128.312 393.939 128.375 378.437 128.375C378.618 128.192 378.027 128.784 378.845 127.966V127.968V127.974V127.984V128.005V128.045V128.127V128.29V128.616V129.267V130.561C378.843 131.421 378.843 132.274 378.843 133.121C378.841 134.814 378.839 136.478 378.837 138.107L378.437 137.707C389.199 137.726 398.617 137.81 405.4 137.89C408.726 137.937 411.424 137.976 413.401 138.004C414.283 138.025 415.003 138.043 415.58 138.058C416.082 138.071 416.352 138.089 416.37 138.106C416.387 138.123 416.15 138.141 415.68 138.158C415.124 138.172 414.433 138.189 413.586 138.21C411.632 138.238 408.964 138.277 405.676 138.324C398.914 138.404 389.365 138.489 378.434 138.507L378.035 138.508L378.033 138.107C378.031 136.478 378.029 134.814 378.027 133.121C378.025 132.274 378.025 131.422 378.025 130.561V129.267V128.616V128.29V128.127V128.045V128.005V127.984V127.974V127.968V127.966C378.845 127.146 378.254 127.738 378.438 127.555C393.939 127.555 407.728 127.618 416.371 127.715L416.625 127.718L416.62 127.966C416.563 131.125 416.516 133.661 416.483 135.516C416.459 136.306 416.438 136.949 416.422 137.471C416.403 137.906 416.387 138.122 416.37 138.106Z" fill="#263238"/>
<path d="M515.141 144.304C518.564 144.304 521.339 141.529 521.339 138.106C521.339 134.683 518.564 131.908 515.141 131.908C511.718 131.908 508.943 134.683 508.943 138.106C508.943 141.529 511.718 144.304 515.141 144.304Z" fill="#263238"/>
<path d="M537.45 144.304C540.873 144.304 543.648 141.529 543.648 138.106C543.648 134.683 540.873 131.908 537.45 131.908C534.027 131.908 531.252 134.683 531.252 138.106C531.252 141.529 534.027 144.304 537.45 144.304Z" fill="#263238"/>
<path d="M548.864 137.486C551.06 137.486 552.841 135.706 552.841 133.509C552.841 131.313 551.06 129.532 548.864 129.532C546.667 129.532 544.887 131.313 544.887 133.509C544.887 135.706 546.667 137.486 548.864 137.486Z" fill="#263238"/>
<path d="M534.934 168.518C535.161 168.518 535.343 162.323 535.343 154.684C535.343 147.042 535.16 140.849 534.934 140.849C534.708 140.849 534.525 147.042 534.525 154.684C534.525 162.323 534.708 168.518 534.934 168.518Z" fill="#263238"/>
<path d="M517.659 168.517C517.886 168.517 518.068 162.323 518.068 154.684C518.068 147.042 517.884 140.848 517.659 140.848C517.433 140.848 517.25 147.042 517.25 154.684C517.249 162.323 517.433 168.517 517.659 168.517Z" fill="#263238"/>
<path d="M538.338 165.875C538.338 166.26 533.466 188.313 533.466 188.313H520.387L515.643 165.875L526.991 161.131L538.338 165.875Z" fill="#263238"/>
<path d="M546.879 127.964H508.943V138.106H546.879V127.964Z" fill="#9B9B9B"/>
<path d="M508.942 138.106C508.958 138.089 508.974 137.84 508.993 137.376C509.009 136.84 509.028 136.178 509.054 135.366C509.087 133.547 509.134 131.061 509.192 127.965L508.943 128.215C517.585 128.312 531.374 128.374 546.876 128.374C546.694 128.192 547.287 128.783 546.469 127.965V127.968V127.973V127.984V128.004V128.045V128.127V128.29V128.616V129.266V130.56C546.47 131.42 546.47 132.274 546.47 133.121C546.473 134.814 546.475 136.478 546.477 138.107L546.877 137.707C536.115 137.725 526.697 137.81 519.914 137.89C516.587 137.937 513.889 137.975 511.912 138.004C511.031 138.025 510.311 138.042 509.733 138.057C509.229 138.071 508.959 138.088 508.942 138.106C508.924 138.123 509.161 138.14 509.632 138.158C510.187 138.171 510.878 138.189 511.725 138.21C513.679 138.237 516.347 138.277 519.636 138.324C526.397 138.404 535.946 138.488 546.877 138.507L547.277 138.508L547.278 138.107C547.28 136.478 547.283 134.814 547.285 133.121C547.286 132.274 547.286 131.421 547.287 130.56V129.266V128.616V128.29V128.127V128.045V128.004V127.984V127.973V127.968V127.965C546.468 127.146 547.058 127.738 546.875 127.555C531.374 127.555 517.585 127.617 508.942 127.714L508.688 127.718L508.692 127.965C508.75 131.124 508.796 133.66 508.83 135.515C508.854 136.305 508.875 136.949 508.891 137.47C508.908 137.906 508.926 138.122 508.942 138.106Z" fill="#263238"/>
<path d="M205.624 129.971C205.624 129.971 212.274 130.905 212.274 138.433C212.274 145.961 212.274 156.757 212.274 156.757H176.113L176.57 130.135L205.624 129.971Z" fill="#EBEBEB"/>
<path d="M205.627 129.97C205.626 129.989 205.444 130.007 205.093 130.027C204.68 130.043 204.17 130.062 203.542 130.088C202.103 130.119 200.13 130.163 197.655 130.217C192.498 130.282 185.263 130.373 176.575 130.482L176.92 130.14C176.805 137.913 176.669 147.007 176.524 156.763L176.116 156.348C177.796 156.348 179.586 156.347 181.394 156.347C192.709 156.368 203.301 156.388 212.276 156.404L211.924 156.756C211.947 152.251 211.969 148.117 211.988 144.437C212.001 142.607 212.014 140.893 212.027 139.302C212.058 137.717 211.979 136.292 211.516 135.077C210.652 132.616 208.838 131.349 207.628 130.737C206.372 130.125 205.615 130.016 205.627 129.97C205.628 129.953 205.821 129.958 206.18 130.034C206.537 130.113 207.069 130.251 207.722 130.54C208.986 131.1 210.931 132.361 211.904 134.935C212.42 136.189 212.532 137.723 212.527 139.3C212.54 140.893 212.553 142.607 212.566 144.435C212.586 148.116 212.607 152.25 212.63 156.755L212.632 157.107L212.278 157.109C203.302 157.125 192.71 157.144 181.395 157.165C179.587 157.165 177.798 157.164 176.117 157.164H175.701L175.709 156.749C175.898 146.995 176.074 137.9 176.225 130.128L176.232 129.785H176.571C185.27 129.797 192.512 129.806 197.675 129.813C200.147 129.839 202.118 129.86 203.556 129.875C204.181 129.893 204.69 129.906 205.101 129.918C205.449 129.935 205.628 129.953 205.627 129.97Z" fill="#263238"/>
<path d="M200.479 137.163C200.624 137.337 197.544 140.116 193.602 143.369C189.658 146.623 186.347 149.119 186.202 148.944C186.058 148.77 189.137 145.991 193.079 142.737C197.022 139.484 200.335 136.988 200.479 137.163Z" fill="#263238"/>
<path d="M201.529 142.544C201.676 142.716 199.496 144.809 196.661 147.217C193.826 149.626 191.41 151.437 191.263 151.265C191.116 151.093 193.295 149.002 196.131 146.593C198.966 144.183 201.382 142.372 201.529 142.544Z" fill="#263238"/>
<path d="M160.942 185.519C160.716 185.519 160.533 173.277 160.533 158.18C160.533 143.078 160.717 130.838 160.942 130.838C161.169 130.838 161.352 143.077 161.352 158.18C161.352 173.277 161.169 185.519 160.942 185.519Z" fill="#263238"/>
<path d="M211.106 185.519C211.106 185.746 198.234 185.93 182.358 185.93C166.477 185.93 153.607 185.746 153.607 185.519C153.607 185.293 166.477 185.11 182.358 185.11C198.234 185.109 211.106 185.293 211.106 185.519Z" fill="#263238"/>
<path d="M211.107 189.922C211.107 190.148 198.455 190.332 182.851 190.332C167.242 190.332 154.592 190.148 154.592 189.922C154.592 189.695 167.242 189.513 182.851 189.513C198.455 189.513 211.107 189.695 211.107 189.922Z" fill="#263238"/>
<path d="M211.107 194.153C211.107 194.38 198.455 194.562 182.851 194.562C167.242 194.562 154.592 194.378 154.592 194.153C154.592 193.927 167.242 193.744 182.851 193.744C198.455 193.744 211.107 193.927 211.107 194.153Z" fill="#263238"/>
<path d="M472.648 95.322H452.602V99.142H472.648V95.322Z" fill="#9B9B9B"/>
<path d="M211.159 235.632C211.42 235.828 211.473 236.197 211.278 236.458L210.493 237.507C210.485 249.89 210.475 262.589 210.462 275.536L210.988 276.247C211.182 276.509 211.126 276.878 210.865 277.072C210.759 277.151 210.636 277.188 210.515 277.188C210.509 277.188 210.505 277.184 210.499 277.184C210.627 277.383 210.631 277.648 210.484 277.85L210.461 277.882C210.448 290.002 210.433 302.325 210.417 314.799L210.989 315.572C211.183 315.835 211.127 316.203 210.866 316.397C210.76 316.476 210.637 316.513 210.516 316.513C210.481 316.513 210.45 316.496 210.416 316.49C210.414 317.094 210.414 317.701 210.413 318.305C210.616 318.117 210.923 318.082 211.155 318.252C211.419 318.444 211.476 318.812 211.285 319.076L210.411 320.275C210.395 332.212 210.378 344.272 210.359 356.403L210.99 357.255C211.184 357.517 211.129 357.886 210.867 358.08C210.761 358.158 210.639 358.195 210.517 358.195C210.462 358.195 210.41 358.173 210.358 358.158C210.356 359.328 210.354 360.497 210.352 361.668L210.357 361.67C210.62 361.862 210.678 362.23 210.486 362.494L210.351 362.68C210.332 374.412 210.314 386.202 210.294 397.999L210.99 398.94C211.184 399.201 211.129 399.57 210.867 399.765C210.761 399.843 210.639 399.88 210.517 399.88C210.439 399.88 210.364 399.857 210.292 399.827C210.29 401.204 210.287 402.582 210.285 403.959C210.308 403.972 210.334 403.975 210.357 403.992C210.62 404.184 210.678 404.553 210.486 404.816L210.283 405.095C210.264 416.61 210.245 428.122 210.225 439.589L210.99 440.623C211.184 440.884 211.129 441.254 210.867 441.448C210.761 441.527 210.639 441.564 210.517 441.564C210.413 441.564 210.314 441.529 210.223 441.475C210.222 442.249 210.22 443.024 210.219 443.798C210.218 444.615 210.217 445.433 210.215 446.25C210.263 446.269 210.313 446.284 210.357 446.316C210.62 446.508 210.678 446.877 210.486 447.139L210.212 447.514C210.194 458.706 210.175 469.94 210.157 481.179L210.991 482.307C211.185 482.568 211.13 482.938 210.869 483.132C210.762 483.21 210.64 483.247 210.518 483.247C210.384 483.247 210.261 483.188 210.155 483.101C210.151 484.913 210.149 486.726 210.145 488.539C210.219 488.557 210.291 488.589 210.357 488.638C210.62 488.829 210.678 489.198 210.486 489.46L210.142 489.932C210.124 500.899 210.106 511.859 210.09 522.774L210.99 523.99C211.184 524.251 211.129 524.621 210.867 524.815C210.761 524.894 210.639 524.931 210.517 524.931C210.356 524.931 210.202 524.855 210.087 524.729C210.084 526.774 210.082 528.817 210.078 530.858C210.175 530.87 210.271 530.898 210.357 530.96C210.62 531.152 210.678 531.521 210.486 531.784L210.076 532.348C210.07 536.147 210.064 539.936 210.059 543.719H211.238C211.287 510.709 211.342 477.038 211.399 443.802C211.542 357.961 211.69 269.199 211.69 196.523C211.69 196.197 211.426 195.934 211.101 195.934C210.776 195.934 210.512 196.198 210.512 196.523C210.512 209.099 210.507 222.168 210.499 235.609C210.695 235.481 210.958 235.482 211.159 235.632Z" fill="#9B9B9B"/>
<path d="M165.957 254.703L156.341 241.705C156.244 241.573 156.101 241.495 155.949 241.473V243.159L165.229 255.701L165.957 254.703Z" fill="#9B9B9B"/>
<path d="M196.151 295.516L181.697 275.977L180.959 276.963L195.423 296.514L196.151 295.516Z" fill="#9B9B9B"/>
<path d="M180.964 274.988L166.693 255.698L165.965 256.697L180.226 275.973L180.964 274.988Z" fill="#9B9B9B"/>
<path d="M196.158 297.509L210.04 316.273C210.134 316.399 210.27 316.462 210.414 316.488C210.449 316.493 210.48 316.511 210.515 316.511C210.636 316.511 210.759 316.473 210.865 316.395C211.127 316.202 211.183 315.832 210.988 315.57L210.416 314.797L196.886 296.508L196.158 297.509Z" fill="#9B9B9B"/>
<path d="M179.664 235.891L180.392 234.891L156.341 202.381C156.244 202.249 156.101 202.171 155.949 202.149V203.835L179.664 235.891Z" fill="#9B9B9B"/>
<path d="M194.858 256.426L195.597 255.44L181.13 235.886L180.402 236.885L194.858 256.426Z" fill="#9B9B9B"/>
<path d="M210.353 277.025C210.413 277.069 210.46 277.124 210.499 277.183C210.505 277.183 210.509 277.187 210.515 277.187C210.636 277.187 210.759 277.148 210.865 277.071C211.127 276.877 211.183 276.508 210.988 276.246L210.462 275.535L196.328 256.43L195.59 257.415L210.021 276.922C210.136 276.925 210.253 276.952 210.353 277.025Z" fill="#9B9B9B"/>
<path d="M180.855 318.508L195.656 338.515L196.384 337.516L181.583 317.51L180.855 318.508Z" fill="#9B9B9B"/>
<path d="M180.849 316.515L166.188 296.697L165.449 297.682L180.121 317.515L180.849 316.515Z" fill="#9B9B9B"/>
<path d="M196.393 339.509L210.04 357.956C210.12 358.065 210.234 358.124 210.354 358.157C210.407 358.172 210.459 358.194 210.514 358.194C210.635 358.194 210.757 358.156 210.864 358.079C211.126 357.884 211.181 357.516 210.986 357.254L210.355 356.402L197.119 338.51L196.393 339.509Z" fill="#9B9B9B"/>
<path d="M165.453 295.706L156.341 283.389C156.244 283.257 156.101 283.178 155.949 283.156V284.842L164.716 296.692L165.453 295.706Z" fill="#9B9B9B"/>
<path d="M181.09 360.509L195.89 380.515L196.617 379.516L181.817 359.51L181.09 360.509Z" fill="#9B9B9B"/>
<path d="M165.555 339.509L180.355 359.515L181.083 358.516L166.283 338.51L165.555 339.509Z" fill="#9B9B9B"/>
<path d="M196.625 381.509L210.038 399.64C210.104 399.729 210.191 399.787 210.286 399.827C210.358 399.857 210.434 399.88 210.511 399.88C210.633 399.88 210.755 399.843 210.862 399.764C211.124 399.57 211.179 399.2 210.984 398.939L210.288 397.999L197.352 380.511L196.625 381.509Z" fill="#9B9B9B"/>
<path d="M165.545 337.516L156.341 325.074C156.244 324.942 156.101 324.864 155.949 324.842V326.527L164.817 338.515L165.545 337.516Z" fill="#9B9B9B"/>
<path d="M165.789 381.509L180.589 401.515L181.317 400.517L166.517 380.511L165.789 381.509Z" fill="#9B9B9B"/>
<path d="M181.324 402.51L196.125 422.515L196.851 421.516L182.051 401.51L181.324 402.51Z" fill="#9B9B9B"/>
<path d="M165.78 379.516L156.341 366.758C156.244 366.625 156.101 366.546 155.949 366.524V368.209L165.053 380.513L165.78 379.516Z" fill="#9B9B9B"/>
<path d="M196.861 423.509L210.039 441.322C210.088 441.388 210.153 441.434 210.22 441.473C210.311 441.526 210.41 441.562 210.514 441.562C210.636 441.562 210.758 441.525 210.864 441.447C211.127 441.252 211.182 440.883 210.987 440.622L210.222 439.587L197.588 422.511L196.861 423.509Z" fill="#9B9B9B"/>
<path d="M166.015 421.517L156.341 408.442C156.244 408.309 156.101 408.23 155.949 408.208V409.894L165.287 422.516L166.015 421.517Z" fill="#9B9B9B"/>
<path d="M181.561 444.51L196.362 464.516L197.09 463.517L182.288 443.511L181.561 444.51Z" fill="#9B9B9B"/>
<path d="M197.096 465.51L210.039 483.006C210.069 483.046 210.112 483.068 210.15 483.099C210.257 483.186 210.38 483.246 210.514 483.246C210.635 483.246 210.758 483.209 210.864 483.13C211.127 482.936 211.182 482.567 210.987 482.305L210.153 481.178L197.822 464.511L197.096 465.51Z" fill="#9B9B9B"/>
<path d="M166.021 423.509L180.822 443.515L181.55 442.517L166.748 422.511L166.021 423.509Z" fill="#9B9B9B"/>
<path d="M197.328 507.51L210.038 524.69C210.05 524.706 210.069 524.713 210.082 524.727C210.197 524.853 210.35 524.929 210.512 524.929C210.633 524.929 210.756 524.892 210.862 524.813C211.124 524.62 211.18 524.249 210.985 523.988L210.085 522.772L198.055 506.512L197.328 507.51Z" fill="#9B9B9B"/>
<path d="M166.256 465.51L181.057 485.517L181.784 484.518L166.984 464.511L166.256 465.51Z" fill="#9B9B9B"/>
<path d="M181.793 486.51L196.595 506.516L197.321 505.518L182.521 485.512L181.793 486.51Z" fill="#9B9B9B"/>
<path d="M166.249 463.517L156.341 450.125C156.244 449.993 156.101 449.914 155.949 449.892V451.578L165.521 464.516L166.249 463.517Z" fill="#9B9B9B"/>
<path d="M182.027 528.51L193.277 543.716H194.743L182.755 527.512L182.027 528.51Z" fill="#9B9B9B"/>
<path d="M166.484 505.518L156.341 491.809C156.244 491.676 156.101 491.598 155.949 491.576V493.26L165.756 506.516L166.484 505.518Z" fill="#9B9B9B"/>
<path d="M166.492 507.511L181.291 527.517L182.019 526.518L167.219 506.513L166.492 507.511Z" fill="#9B9B9B"/>
<path d="M155.949 521.979L155.836 522.133C155.721 522.292 155.54 522.376 155.358 522.376C155.238 522.376 155.116 522.339 155.011 522.263C154.748 522.071 154.69 521.702 154.882 521.44L155.948 519.976V493.263V491.578V479.658L155.835 479.813C155.72 479.971 155.539 480.056 155.357 480.056C155.237 480.056 155.115 480.019 155.01 479.943C154.747 479.751 154.689 479.382 154.881 479.119L155.947 477.655V451.58V449.895V437.337L155.834 437.492C155.718 437.65 155.538 437.734 155.356 437.734C155.235 437.734 155.114 437.697 155.009 437.621C154.745 437.429 154.688 437.061 154.88 436.797L155.946 435.333V409.893V408.208V395.011L155.833 395.166C155.717 395.324 155.537 395.408 155.354 395.408C155.234 395.408 155.113 395.371 155.008 395.295C154.744 395.103 154.687 394.735 154.878 394.472L155.945 393.009V368.21V366.525V352.69L155.832 352.844C155.716 353.004 155.536 353.087 155.353 353.087C155.233 353.087 155.112 353.05 155.007 352.974C154.743 352.782 154.685 352.413 154.877 352.15L155.944 350.686V326.527V324.842V310.372L155.826 310.529C155.71 310.684 155.532 310.766 155.352 310.766C155.23 310.766 155.106 310.728 155 310.648C154.739 310.452 154.685 310.083 154.881 309.823L155.943 308.404V284.844V283.158V270.442L155.829 270.597C155.714 270.756 155.534 270.84 155.351 270.84C155.231 270.84 155.109 270.803 155.004 270.726C154.741 270.534 154.683 270.166 154.875 269.902L155.941 268.438V243.16V241.474V203.836V202.15V198.223C155.941 197.897 155.677 197.634 155.352 197.634C155.026 197.634 154.763 197.898 154.763 198.223V543.718H155.943V521.979H155.949Z" fill="#9B9B9B"/>
<path d="M180.964 274.988L180.226 275.973L165.454 295.708L164.716 296.693L155.949 308.404L154.887 309.823C154.692 310.083 154.745 310.454 155.006 310.648C155.113 310.727 155.236 310.766 155.359 310.766C155.539 310.766 155.716 310.685 155.832 310.529L155.95 310.372L165.449 297.682L166.188 296.697L180.959 276.963L181.698 275.978L195.591 257.418L196.329 256.432L210.495 237.508L211.28 236.46C211.475 236.2 211.422 235.829 211.161 235.633C210.96 235.482 210.698 235.482 210.497 235.607C210.436 235.645 210.38 235.691 210.335 235.752L195.597 255.441L194.858 256.426L180.964 274.988Z" fill="#9B9B9B"/>
<path d="M165.958 254.703L165.23 255.703L155.951 268.438L154.884 269.902C154.694 270.166 154.75 270.534 155.014 270.726C155.118 270.802 155.239 270.839 155.36 270.839C155.543 270.839 155.722 270.756 155.839 270.597L155.952 270.442L165.966 256.698L166.694 255.698L180.402 236.886L181.129 235.886L210.484 195.6C210.675 195.336 210.617 194.968 210.355 194.776C210.091 194.584 209.724 194.64 209.531 194.905L180.396 234.892L179.668 235.891L165.958 254.703Z" fill="#9B9B9B"/>
<path d="M166.282 338.51L180.856 318.508L181.584 317.509L196.158 297.508L196.886 296.508L210.459 277.88L210.482 277.847C210.63 277.644 210.626 277.38 210.497 277.182C210.459 277.123 210.413 277.067 210.352 277.023C210.251 276.951 210.134 276.924 210.019 276.921C209.832 276.916 209.646 276.989 209.527 277.153L196.149 295.513L195.421 296.513L180.847 316.514L180.119 317.513L165.545 337.515L164.817 338.514L155.949 350.686L154.882 352.15C154.692 352.413 154.748 352.782 155.012 352.974C155.116 353.05 155.237 353.087 155.358 353.087C155.541 353.087 155.72 353.004 155.837 352.844L155.95 352.689L165.554 339.509L166.282 338.51Z" fill="#9B9B9B"/>
<path d="M166.517 380.511L181.091 360.51L181.819 359.51L196.392 339.509L197.12 338.509L210.408 320.273L211.282 319.073C211.474 318.81 211.416 318.441 211.152 318.249C210.92 318.081 210.614 318.114 210.411 318.303C210.383 318.328 210.351 318.348 210.327 318.379L196.384 337.515L195.656 338.514L181.083 358.515L180.355 359.515L165.781 379.516L165.053 380.514L155.949 393.007L154.882 394.471C154.692 394.733 154.748 395.102 155.012 395.294C155.116 395.371 155.237 395.407 155.358 395.407C155.541 395.407 155.72 395.323 155.837 395.164L155.95 395.01L165.789 381.507L166.517 380.511Z" fill="#9B9B9B"/>
<path d="M166.751 422.511L181.325 402.509L182.053 401.511L196.627 381.509L197.355 380.511L210.348 362.679L210.483 362.493C210.674 362.229 210.616 361.861 210.354 361.669C210.354 361.669 210.351 361.668 210.349 361.667C210.086 361.477 209.72 361.535 209.529 361.798L196.619 379.516L195.891 380.515L181.317 400.516L180.589 401.514L166.016 421.518L165.288 422.516L155.951 435.331L154.884 436.795C154.694 437.057 154.75 437.427 155.014 437.619C155.118 437.695 155.239 437.732 155.36 437.732C155.543 437.732 155.722 437.648 155.839 437.49L155.952 437.335L166.025 423.51L166.751 422.511Z" fill="#9B9B9B"/>
<path d="M166.985 464.511L181.559 444.509L182.286 443.511L196.86 423.508L197.588 422.51L210.279 405.093L210.482 404.814C210.673 404.552 210.615 404.183 210.353 403.99C210.331 403.974 210.306 403.969 210.281 403.957C210.026 403.818 209.705 403.877 209.528 404.118L196.852 421.514L196.124 422.512L181.55 442.515L180.823 443.513L166.249 463.515L165.521 464.514L155.949 477.65L154.882 479.114C154.692 479.377 154.748 479.745 155.012 479.938C155.116 480.014 155.237 480.051 155.358 480.051C155.541 480.051 155.72 479.967 155.837 479.809L155.95 479.654L166.258 465.509L166.985 464.511Z" fill="#9B9B9B"/>
<path d="M167.219 506.513L181.793 486.51L182.521 485.512L197.095 465.51L197.823 464.511L210.208 447.513L210.482 447.138C210.673 446.875 210.615 446.507 210.353 446.315C210.309 446.283 210.259 446.268 210.211 446.249C209.968 446.157 209.688 446.224 209.528 446.443L197.087 463.518L196.359 464.516L181.785 484.518L181.057 485.517L166.483 505.519L165.755 506.517L155.949 519.976L154.882 521.44C154.692 521.702 154.748 522.071 155.012 522.263C155.116 522.339 155.237 522.376 155.358 522.376C155.541 522.376 155.72 522.292 155.837 522.133L155.95 521.979L166.492 507.511L167.219 506.513Z" fill="#9B9B9B"/>
<path d="M182.754 527.512L197.328 507.51L198.056 506.511L210.138 489.93L210.482 489.459C210.673 489.197 210.615 488.828 210.353 488.636C210.287 488.588 210.215 488.555 210.141 488.538C209.917 488.485 209.673 488.567 209.529 488.766L197.322 505.519L196.594 506.517L182.021 526.519L181.293 527.518L169.488 543.718H170.949L182.029 528.512L182.754 527.512Z" fill="#9B9B9B"/>
<path d="M210.484 531.782C210.674 531.519 210.616 531.151 210.354 530.958C210.269 530.895 210.173 530.868 210.076 530.856C209.871 530.832 209.661 530.908 209.53 531.087L200.328 543.716H201.787L210.073 532.345L210.484 531.782Z" fill="#9B9B9B"/>
<path d="M396.275 183.499C396.441 183.499 396.575 210.196 396.575 243.12C396.575 276.057 396.44 302.747 396.275 302.747C396.109 302.747 395.975 276.056 395.975 243.12C395.975 210.196 396.109 183.499 396.275 183.499Z" fill="#263238"/>
<path d="M528.88 184.32C529.047 184.32 529.181 211.017 529.181 243.941C529.181 276.876 529.047 303.568 528.88 303.568C528.714 303.568 528.58 276.876 528.58 243.941C528.579 211.017 528.714 184.32 528.88 184.32Z" fill="#263238"/>
<path d="M532.27 300.912H392.982V328.667H532.27V300.912Z" fill="#455A64"/>
<path d="M392.982 306.997C392.982 306.831 424.359 306.697 463.057 306.697C501.768 306.697 533.137 306.832 533.137 306.997C533.137 307.163 501.766 307.298 463.057 307.298C424.359 307.299 392.982 307.164 392.982 306.997Z" fill="#263238"/>
<path d="M392.982 322.583C392.982 322.417 424.359 322.283 463.057 322.283C501.768 322.283 533.137 322.418 533.137 322.583C533.137 322.75 501.766 322.884 463.057 322.884C424.359 322.884 392.982 322.749 392.982 322.583Z" fill="#263238"/>
<path d="M460.039 322.694C459.872 322.694 459.738 319.139 459.738 314.754C459.738 310.368 459.872 306.812 460.039 306.812C460.205 306.812 460.339 310.368 460.339 314.754C460.34 319.139 460.205 322.694 460.039 322.694Z" fill="#263238"/>
<path d="M400.632 276.957H391.906V295.396H400.632V276.957Z" fill="white"/>
<path d="M391.906 291.861L400.632 289.301V284.409L391.906 287.263V291.861Z" fill="#9B9B9B"/>
<path d="M391.906 295.398H400.632V292.019L391.906 294.253V295.398Z" fill="#9B9B9B"/>
<path d="M391.906 284.409L400.632 281.851V276.957L391.906 279.811V284.409Z" fill="#9B9B9B"/>
<path d="M400.636 295.398C400.613 295.374 400.59 294.871 400.566 293.965C400.546 292.977 400.52 291.688 400.487 290.112C400.432 286.838 400.371 282.27 400.351 276.959L400.635 277.243C397.927 277.247 394.978 277.253 391.91 277.259C392.509 276.657 392.077 277.095 392.209 276.962V276.968V276.978V276.999V277.041V277.124V277.291V277.625V278.289C392.209 278.73 392.208 279.168 392.208 279.603C392.207 280.474 392.206 281.332 392.204 282.178C392.198 283.865 392.193 285.496 392.187 287.057C392.166 290.155 392.146 292.973 392.129 295.398L391.908 295.177C394.502 295.225 396.636 295.266 398.225 295.295C398.928 295.317 399.51 295.335 399.987 295.35C400.397 295.366 400.621 295.381 400.636 295.398C400.651 295.413 400.458 295.428 400.074 295.445C399.61 295.46 399.045 295.478 398.361 295.5C396.74 295.53 394.56 295.57 391.91 295.618L391.692 295.622L391.691 295.398C391.673 292.972 391.654 290.154 391.632 287.057C391.627 285.496 391.621 283.865 391.616 282.178C391.614 281.333 391.613 280.475 391.611 279.603C391.611 279.168 391.61 278.73 391.61 278.289V277.625V277.291V277.124V277.041V276.999V276.978V276.968V276.962C391.745 276.827 391.308 277.258 391.912 276.657C394.981 276.663 397.929 276.669 400.637 276.673H400.923L400.922 276.957C400.902 282.392 400.841 287.045 400.785 290.302C400.753 291.851 400.728 293.119 400.707 294.09C400.683 294.962 400.659 295.421 400.636 295.398Z" fill="#263238"/>
<path d="M533.219 275.823H524.492V294.262H533.219V275.823Z" fill="white"/>
<path d="M524.492 290.725L533.219 288.167V283.273L524.492 286.127V290.725Z" fill="#9B9B9B"/>
<path d="M524.492 294.262H533.219V290.883L524.492 293.117V294.262Z" fill="#9B9B9B"/>
<path d="M524.492 283.273L533.219 280.715V275.823L524.492 278.677V283.273Z" fill="#9B9B9B"/>
<path d="M533.22 294.262C533.197 294.239 533.173 293.735 533.149 292.829C533.13 291.841 533.103 290.553 533.071 288.977C533.015 285.702 532.954 281.135 532.934 275.823L533.219 276.107C530.51 276.112 527.561 276.118 524.494 276.123C525.092 275.521 524.66 275.959 524.793 275.826V275.832V275.843V275.863V275.905V275.988V276.156V276.49V277.153C524.793 277.594 524.792 278.032 524.792 278.468C524.79 279.338 524.789 280.196 524.787 281.042C524.781 282.729 524.777 284.359 524.771 285.922C524.749 289.019 524.729 291.838 524.712 294.262L524.491 294.041C527.085 294.09 529.221 294.13 530.808 294.159C531.512 294.181 532.093 294.199 532.57 294.214C532.98 294.232 533.205 294.247 533.22 294.262C533.235 294.277 533.042 294.292 532.656 294.309C532.192 294.324 531.627 294.343 530.943 294.365C529.322 294.395 527.142 294.434 524.492 294.483L524.274 294.487L524.273 294.263C524.256 291.838 524.236 289.019 524.214 285.923C524.209 284.361 524.204 282.73 524.198 281.043C524.197 280.199 524.195 279.34 524.193 278.469C524.193 278.033 524.192 277.595 524.192 277.154V276.491V276.157V275.989V275.906V275.864V275.844V275.833V275.827C524.327 275.692 523.89 276.123 524.494 275.522C527.562 275.528 530.51 275.534 533.219 275.539H533.504L533.503 275.823C533.483 281.257 533.422 285.91 533.366 289.167C533.334 290.717 533.309 291.984 533.288 292.955C533.266 293.827 533.243 294.285 533.22 294.262Z" fill="#263238"/>
<path d="M400.636 296.905H391.91V300.912H400.636V296.905Z" fill="#263238"/>
<path d="M531.538 296.905H522.811V300.912H531.538V296.905Z" fill="#263238"/>
</svg>
